<?xml version="1.0" encoding="UTF-8"?>
<svg id="Layer_2" data-name="Layer 2" xmlns="http://www.w3.org/2000/svg" viewBox="0 0 111.28 64.84">
  <defs>
    <style>
      .cls-1 {
        fill: #fff;
      }

      .cls-2 {
        fill: #ef3824;
      }
    </style>
  </defs>
  <g id="Layer_1-2" data-name="Layer 1">
    <g>
      <g>
        <path class="cls-1" d="M19.63,62.56l1.68-2.48c1.18,1.09,2.92,1.85,4.46,1.85,1.3,0,2.42-.57,2.42-1.43,0-1.01-1.39-1.35-2.92-1.72-2.9-.69-5.07-2.06-5.07-4.62s2.25-4.33,5.59-4.33c2.23,0,4.06.76,5.13,1.79l-1.51,2.48c-.84-.8-2.27-1.37-3.64-1.37s-2.23.55-2.23,1.3c0,.95,1.32,1.39,2.65,1.66,1.28.27,5.34,1.28,5.34,4.67,0,2.67-2.5,4.48-5.74,4.48-2.25,0-4.65-.9-6.16-2.27Z"/>
        <path class="cls-1" d="M47.6,58.95v-8.87h3.26v8.83c0,1.6,1.18,2.8,2.8,2.8s2.8-1.2,2.8-2.8v-8.83h3.26v8.87c0,3.36-2.63,5.89-6.05,5.89s-6.05-2.52-6.05-5.89Z"/>
        <path class="cls-1" d="M75.2,50.08v14.5h-3.3l-6.01-8.87v8.87h-3.26v-14.5h3.28l6.03,8.87v-8.87h3.26Z"/>
        <polygon class="cls-1" points="86.46 50.08 82.62 50.08 77.17 64.58 80.66 64.58 84.51 53.67 86.4 59.03 84.35 59.03 83.29 62.04 87.45 62.04 88.35 64.58 91.93 64.58 86.46 50.08"/>
        <polygon class="cls-1" points="41.38 50.08 37.54 50.08 32.09 64.58 35.58 64.58 39.43 53.67 41.32 59.03 39.27 59.03 38.21 62.04 42.37 62.04 43.27 64.58 46.85 64.58 41.38 50.08"/>
      </g>
      <g>
        <g>
          <path class="cls-1" d="M17.19,14.39h7.2v28.79h-7.2v-10.93H7.2v10.93H0V14.39h7.2v10.66h9.99v-10.66Z"/>
          <path class="cls-1" d="M59.93,14.39h24.33v7.2h-8.57v21.59h-7.2v-21.59h-8.57v-7.2Z"/>
          <path class="cls-1" d="M86.95,14.39h24.33v7.2h-8.57v21.59h-7.2v-21.59h-8.57v-7.2Z"/>
        </g>
        <path class="cls-2" d="M56.74,20.62c-.04-.06-.08-.09-.11-.15-.03-.06-.05-.08-.08-.13-1.36-2.06-3.12-3.73-5.3-4.89-.18-.09-.36.08-.28.28,1.07,2.68.55,7.91-3.47,7.49-2.23-.23-3.27-2.41-2.91-4.41.45-2.53,2.38-4.53,3.14-6.92.85-2.68.71-5.36-.35-7.94-.59-1.44-1.59-2.73-2.65-3.88-.13-.14-.38-.02-.37.16.1,1.97.27,4.15-.44,6.03-.8,2.11-2.37,3.87-3.98,5.4-4.96,4.67-11.28,9.43-11.06,17.04.28,9.68,8.98,16.79,18.83,14.47,5.33-1.26,9.55-5.63,10.83-10.85,1.02-4.16.31-8.07-1.77-11.69ZM43.93,36.53c-4.35,0-7.87-3.52-7.87-7.87,0-2.51,1.18-4.75,3.01-6.19.49,3.87,3.8,6.86,7.8,6.86,1.83,0,3.52-.63,4.86-1.68.04.33.06.67.06,1.01,0,4.35-3.52,7.87-7.87,7.87Z"/>
      </g>
    </g>
  </g>
</svg>